HIERARCHY
ROOT Hips
{
	OFFSET 0.00000 0.00000 0.00000
	CHANNELS 6 Xposition Yposition Zposition Zrotation Yrotation Xrotation 
	JOINT LHipJoint
	{
		OFFSET 0 0 0
		CHANNELS 3 Zrotation Yrotation Xrotation
		JOINT LeftUpLeg
		{
			OFFSET 1.77779 -1.88989 0.48267
			CHANNELS 3 Zrotation Yrotation Xrotation
			JOINT LeftLeg
			{
				OFFSET 2.53442 -6.96327 0.00000
				CHANNELS 3 Zrotation Yrotation Xrotation
				JOINT LeftFoot
				{
					OFFSET 2.71068 -7.44755 0.00000
					CHANNELS 3 Zrotation Yrotation Xrotation
					JOINT LeftToeBase
					{
						OFFSET 0.17992 -0.49431 2.22524
						CHANNELS 3 Zrotation Yrotation Xrotation
						End Site
						{
							OFFSET 0.00000 -0.00000 1.14687
						}
					}
				}
			}
		}
	}
	JOINT RHipJoint
	{
		OFFSET 0 0 0
		CHANNELS 3 Zrotation Yrotation Xrotation
		JOINT RightUpLeg
		{
			OFFSET -1.58469 -1.88989 0.48267
			CHANNELS 3 Zrotation Yrotation Xrotation
			JOINT RightLeg
			{
				OFFSET -2.60386 -7.15404 0.00000
				CHANNELS 3 Zrotation Yrotation Xrotation
				JOINT RightFoot
				{
					OFFSET -2.73334 -7.50979 0.00000
					CHANNELS 3 Zrotation Yrotation Xrotation
					JOINT RightToeBase
					{
						OFFSET -0.25618 -0.70384 2.21822
						CHANNELS 3 Zrotation Yrotation Xrotation
						End Site
						{
							OFFSET -0.00000 -0.00000 1.16381
						}
					}
				}
			}
		}
	}
	JOINT LowerBack
	{
		OFFSET 0 0 0
		CHANNELS 3 Zrotation Yrotation Xrotation
		JOINT Spine
		{
			OFFSET 0.03410 2.01612 -0.22230
			CHANNELS 3 Zrotation Yrotation Xrotation
			JOINT Spine1
			{
				OFFSET 0.03465 2.03012 0.00937
				CHANNELS 3 Zrotation Yrotation Xrotation
				JOINT Neck
				{
					OFFSET 0 0 0
					CHANNELS 3 Zrotation Yrotation Xrotation
					JOINT Neck1
					{
						OFFSET -0.00219 1.70459 0.20857
						CHANNELS 3 Zrotation Yrotation Xrotation
						JOINT Head
						{
							OFFSET 0.02518 1.72339 -0.22179
							CHANNELS 3 Zrotation Yrotation Xrotation
							End Site
							{
								OFFSET 0.00282 1.74122 -0.09823
							}
						}
					}
				}
				JOINT LeftShoulder
				{
					OFFSET 0 0 0
					CHANNELS 3 Zrotation Yrotation Xrotation
					JOINT LeftArm
					{
						OFFSET 3.36358 1.00547 -0.37661
						CHANNELS 3 Zrotation Yrotation Xrotation
						JOINT LeftForeArm
						{
							OFFSET 5.06507 -0.00000 0.00000
							CHANNELS 3 Zrotation Yrotation Xrotation
							JOINT LeftHand
							{
								OFFSET 3.60196 -0.00000 0.00000
								CHANNELS 3 Zrotation Yrotation Xrotation
								JOINT LeftFingerBase
								{
									OFFSET 0 0 0
									CHANNELS 3 Zrotation Yrotation Xrotation
									JOINT LeftHandIndex1
									{
										OFFSET 0.45035 -0.00000 0.00000
										CHANNELS 3 Zrotation Yrotation Xrotation
										End Site
										{
											OFFSET 0.36308 -0.00000 0.00000
										}
									}
								}
								JOINT LThumb
								{
									OFFSET 0 0 0
									CHANNELS 3 Zrotation Yrotation Xrotation
									End Site
									{
										OFFSET 0.36862 -0.00000 0.36862
									}
								}
							}
						}
					}
				}
				JOINT RightShoulder
				{
					OFFSET 0 0 0
					CHANNELS 3 Zrotation Yrotation Xrotation
					JOINT RightArm
					{
						OFFSET -3.50159 0.80383 -0.71526
						CHANNELS 3 Zrotation Yrotation Xrotation
						JOINT RightForeArm
						{
							OFFSET -5.36394 -0.00000 0.00000
							CHANNELS 3 Zrotation Yrotation Xrotation
							JOINT RightHand
							{
								OFFSET -3.58035 -0.00000 0.00000
								CHANNELS 3 Zrotation Yrotation Xrotation
								JOINT RightFingerBase
								{
									OFFSET 0 0 0
									CHANNELS 3 Zrotation Yrotation Xrotation
									JOINT RightHandIndex1
									{
										OFFSET -0.66375 -0.00000 0.00000
										CHANNELS 3 Zrotation Yrotation Xrotation
										End Site
										{
											OFFSET -0.53513 -0.00000 0.00000
										}
									}
								}
								JOINT RThumb
								{
									OFFSET 0 0 0
									CHANNELS 3 Zrotation Yrotation Xrotation
									End Site
									{
										OFFSET -0.54330 -0.00000 0.54330
									}
								}
							}
						}
					}
				}
			}
		}
	}
}
MOTION
Frames: 6
Frame Time: .0083333
-0.2172 18.1225 -30.3706 0 0 0 0 0 0 -21 0 0 0 0 0 0 0 0 0 0 0 0 0 0 21 0 0 0 0 0 0 0 0 0 0 0 0 0 0 0 0 0 0 0 0 0 0 -16 0 0 21 0 0 11 0 0 0 -8 0 0 0 0 0 0 0 0 0 0 0 0 0 0 0 0 0 0 0 0 8 0 0 0 0 0 0 0 0 0 0 0 0 0 0 0 0 0
-0.2172 18.1225 -30.3706 -5.3996 1.0134 6.5079 0.0000 0.0000 0.0000 -11.6208 -9.0088 -37.9046 15.9430 19.6007 78.0617 -0.0110 -4.0080 -2.3192 0.4337 -4.2259 -11.7131 0.0000 0.0000 0.0000 34.3670 3.6435 4.4628 -3.2646 -11.1115 32.6570 0.1192 -6.6886 0.4556 -0.5212 4.6268 -12.8472 6.9825 1.2239 14.0867 2.7935 3.0796 -1.1914 -1.5919 1.2141 -9.0216 -1.9062 -5.1230 -19.9595 2.2242 -6.6929 9.7782 0.2796 -3.1160 6.3331 -0.0000 -0.0000 0.0000 -83.5476 30.6466 43.8572 107.0841 -58.8679 -74.7390 -0.0000 0.0000 -27.1597 30.6783 -1.8442 -1.0938 -7.1250 0.0000 -0.0000 3.1619 27.8312 -1.3218 -0.0000 -0.0000 0.0000 87.6704 -4.4956 46.5572 -145.9352 44.1327 -105.8418 0.0000 -0.0000 -18.0830 -20.1005 37.6955 -12.6133 7.1250 -0.0000 -0.0000 7.4384 9.1760 8.5965
-0.1960 18.2272 -29.8452 -5.1325 1.6298 6.1240 0.0000 0.0000 0.0000 -12.3333 -9.9363 -37.2231 14.4530 19.2457 73.5832 -0.0079 -3.2422 -1.8335 0.2330 -3.1069 -8.5764 0.0000 0.0000 0.0000 33.6554 2.1020 6.1004 -3.0042 -10.7019 31.2808 -0.0458 -7.4130 6.1684 -0.5679 4.8265 -13.4142 7.0566 1.1684 13.9278 2.6209 2.9919 -1.2524 -1.7961 1.1641 -8.9904 -1.8343 -5.2141 -19.8062 2.1500 -6.8362 10.1087 0.2270 -3.1867 6.4131 -0.0000 0.0000 0.0000 -83.6893 31.8804 43.4112 108.4027 -58.6809 -75.8666 -0.0000 0.0000 -27.5551 31.0992 -1.3896 -0.8381 -7.1250 0.0000 -0.0000 3.5092 28.3506 -1.4244 -0.0000 0.0000 0.0000 87.1797 -4.6335 47.2435 -145.4568 44.4832 -105.5076 0.0000 -0.0000 -16.4275 -21.4565 40.8946 -14.4296 7.1250 -0.0000 -0.0000 7.3374 12.6517 8.8303
-0.1759 18.3230 -29.3220 -4.8868 2.3574 5.6665 0.0000 0.0000 0.0000 -13.0301 -10.8557 -36.2355 12.9335 18.7580 68.9190 -0.0055 -2.8752 -1.6753 0.1363 -2.3799 -6.5568 0.0000 0.0000 0.0000 33.0180 0.6098 7.6865 -2.8111 -10.3829 30.2257 -0.3355 -8.5299 11.1309 -0.3392 3.7426 -10.3537 7.1993 1.0269 13.6691 2.4678 2.7866 -1.2181 -1.9898 1.0621 -8.8060 -1.8665 -5.2723 -19.4065 2.2072 -6.9258 10.2156 0.2480 -3.2294 6.3886 0.0000 0.0000 0.0000 -83.9000 32.9396 42.8441 109.5372 -58.5074 -76.8349 -0.0000 0.0000 -27.9299 31.2286 -1.0355 -0.6278 -7.1250 0.0000 -0.0000 3.6272 28.7612 -1.4371 0.0000 0.0000 0.0000 86.6834 -4.8798 47.8970 -145.3988 44.5253 -105.4670 0.0000 -0.0000 -15.2931 -20.3668 39.7429 -13.3520 7.1250 -0.0000 -0.0000 7.6653 11.2635 9.0882
-0.1650 18.4103 -28.8073 -4.5727 2.9841 5.1683 0.0000 0.0000 0.0000 -13.7648 -11.5696 -35.1185 11.4038 18.1271 64.0862 -0.0068 -2.8702 -1.5853 0.1618 -2.5916 -7.1438 0.0000 0.0000 0.0000 32.5257 -0.3947 9.3870 -2.6614 -10.1257 29.3847 -0.6934 -9.4658 15.2914 -0.0677 1.6788 -4.6188 7.0730 0.9463 12.9916 2.3724 2.5616 -0.8752 -1.9539 0.9913 -8.0614 -2.0908 -5.3336 -19.0263 2.4656 -6.9923 10.0628 0.3692 -3.2541 6.2975 0.0000 0.0000 0.0000 -84.2619 33.6141 42.0982 110.6963 -58.3180 -77.8223 -0.0000 0.0000 -28.6766 29.8191 -1.8357 -1.0518 -7.1250 0.0000 -0.0000 2.5001 27.8614 -1.0428 0.0000 0.0000 0.0000 86.1378 -4.7913 48.5331 -145.5774 44.3954 -105.5921 0.0000 -0.0000 -14.9556 -19.2206 38.4166 -12.2235 7.1250 -0.0000 -0.0000 8.0202 9.6996 9.3411
-0.1474 18.4870 -28.2795 -4.4093 3.1181 5.0975 0.0000 0.0000 0.0000 -14.2684 -11.9458 -34.3350 9.9101 17.3590 59.1873 -0.0120 -3.1777 -1.5165 0.2210 -3.0262 -8.3517 0.0000 0.0000 0.0000 32.3281 -0.3118 10.7627 -2.6058 -10.0278 29.0669 -1.0836 -10.1728 18.8597 -0.0034 -0.3774 1.0369 7.0850 1.2435 13.1703 2.0400 2.9290 -0.6021 -2.3872 1.1748 -7.8161 -1.3557 -5.6338 -22.7602 2.1065 -7.5457 12.0991 -0.0530 -3.4475 7.5350 -0.0000 -0.0000 0.0000 -83.6922 33.4217 42.2529 111.9270 -58.1030 -78.8684 -0.0000 0.0000 -29.5111 28.7013 -2.0098 -1.1000 -7.1250 0.0000 -0.0000 1.6325 27.6876 -0.6873 -0.0000 -0.0000 0.0000 86.1561 -4.0723 48.3612 -145.9973 44.0867 -105.8850 0.0000 -0.0000 -15.4364 -17.7818 37.5470 -11.0589 7.1250 -0.0000 -0.0000 8.6324 8.5392 9.9237
